<svg width="17" height="16" viewBox="0 0 17 16" fill="none" xmlns="http://www.w3.org/2000/svg">
<path d="M11.2682 2.592C11.1793 2.27753 10.9902 2.0007 10.7295 1.80359C10.4689 1.60648 10.151 1.49988 9.82422 1.5H7.82422C7.13755 1.5 6.55755 1.962 6.38022 2.592M11.2682 2.592C11.3049 2.72133 11.3242 2.85867 11.3242 3C11.3242 3.13261 11.2715 3.25979 11.1778 3.35355C11.084 3.44732 10.9568 3.5 10.8242 3.5H6.82422C6.69161 3.5 6.56443 3.44732 6.47067 3.35355C6.3769 3.25979 6.32422 3.13261 6.32422 3C6.32422 2.85867 6.34422 2.72133 6.38022 2.592M11.2682 2.592C11.6989 2.62467 12.1269 2.66533 12.5529 2.71467C13.2862 2.8 13.8242 3.43267 13.8242 4.17133V13C13.8242 13.3978 13.6662 13.7794 13.3849 14.0607C13.1036 14.342 12.722 14.5 12.3242 14.5H5.32422C4.92639 14.5 4.54486 14.342 4.26356 14.0607C3.98225 13.7794 3.82422 13.3978 3.82422 13V4.17133C3.82422 3.43267 4.36155 2.8 5.09555 2.71467C5.52291 2.66518 5.95122 2.62429 6.38022 2.592" stroke="white" stroke-width="1.5" stroke-linecap="round" stroke-linejoin="round"/>
</svg>
