<svg width="1920" height="288" viewBox="0 0 1920 288" fill="none" xmlns="http://www.w3.org/2000/svg">
<g clip-path="url(#clip0_52_878)">
<g opacity="0.6" filter="url(#filter0_i_52_878)">
<path d="M1978.94 70.0445L-40.1224 105.405L-38.1612 217.388L1980.9 182.027L1978.94 70.0445Z" fill="#FF381E"/>
</g>
<g filter="url(#filter1_i_52_878)">
<path d="M1960.65 -0.0706791L-51.0385 175.929L-41.277 287.503L1970.41 111.503L1960.65 -0.0706791Z" fill="#FF381E"/>
</g>
<mask id="mask0_52_878" style="mask-type:alpha" maskUnits="userSpaceOnUse" x="961" y="112" width="85" height="56">
<path d="M1041.62 112.771L961.921 119.74L966.102 167.558L1045.8 160.589L1041.62 112.771Z" fill="white"/>
</mask>
<g mask="url(#mask0_52_878)">
<path fill-rule="evenodd" clip-rule="evenodd" d="M1043.17 138.551C1042.68 132.933 1039.57 128.738 1034.37 129.192C1029.15 129.649 1026.38 134.358 1026.86 139.933C1027.44 146.538 1031.46 149.548 1036.82 149.08C1039.43 148.851 1041.35 148.086 1042.77 147.122L1042.39 142.732C1040.96 143.609 1039.29 144.22 1037.12 144.41C1034.99 144.596 1033.04 144.015 1032.57 141.446L1043.3 140.508C1043.28 140.222 1043.22 139.077 1043.17 138.551ZM1032.15 137.414C1031.93 134.934 1033.36 133.77 1034.74 133.649C1036.08 133.532 1037.6 134.439 1037.81 136.919L1032.15 137.414Z" fill="white"/>
<path fill-rule="evenodd" clip-rule="evenodd" d="M1017.52 130.666C1015.37 130.854 1014.07 131.985 1013.37 132.754L1012.96 131.418L1008.13 131.841L1010.37 157.429L1015.76 155.786L1015.24 149.574C1016.08 150.075 1017.31 150.786 1019.24 150.617C1023.17 150.273 1026.47 146.8 1025.86 139.843C1025.28 133.481 1021.36 130.33 1017.52 130.666ZM1017.52 145.902C1016.23 146.015 1015.42 145.621 1014.84 145.097L1014.11 136.957C1014.63 136.271 1015.38 135.763 1016.63 135.653C1018.62 135.479 1020.2 137.596 1020.45 140.471C1020.71 143.412 1019.54 145.725 1017.52 145.902Z" fill="white"/>
<path fill-rule="evenodd" clip-rule="evenodd" d="M1000.44 130.855L1005.85 129.188L1005.46 124.733L1000.05 126.378L1000.44 130.855Z" fill="white"/>
<path d="M1006.1 132.041L1000.59 132.523L1002.27 151.725L1007.77 151.243L1006.1 132.041Z" fill="white"/>
<path fill-rule="evenodd" clip-rule="evenodd" d="M994.826 134.663L994.332 133.07L989.592 133.484L991.271 152.686L996.758 152.207L995.62 139.193C996.767 137.39 998.988 137.505 999.69 137.687L999.248 132.64C998.523 132.438 995.913 132.179 994.826 134.663Z" fill="white"/>
<path fill-rule="evenodd" clip-rule="evenodd" d="M983.295 129.236L978.04 130.845L979.555 148.426C979.839 151.674 982.484 153.853 985.732 153.569C987.531 153.411 988.819 152.967 989.509 152.509L989.119 148.054C988.442 148.401 985.063 149.713 984.779 146.465L984.098 138.675L988.267 138.31L987.859 133.636L983.689 134L983.295 129.236Z" fill="white"/>
<path fill-rule="evenodd" clip-rule="evenodd" d="M969.363 140.87C969.289 140.014 969.962 139.623 971.125 139.522C972.793 139.376 974.944 139.696 976.69 140.45L976.239 135.293C974.355 134.728 972.53 134.6 970.709 134.759C966.254 135.149 963.495 137.734 963.834 141.619C964.364 147.676 972.619 145.981 972.847 148.592C972.935 149.602 972.086 150.008 970.857 150.115C969.036 150.274 966.644 149.732 964.713 148.883L965.169 154.107C967.287 154.806 969.383 154.999 971.27 154.834C975.835 154.434 978.775 151.9 978.432 147.971C977.838 141.433 969.578 143.328 969.363 140.87Z" fill="white"/>
</g>
<mask id="mask1_52_878" style="mask-type:alpha" maskUnits="userSpaceOnUse" x="723" y="128" width="140" height="61">
<path d="M858.317 128.8L723.83 140.56L728.011 188.378L862.498 176.618L858.317 128.8Z" fill="white"/>
</mask>
<g mask="url(#mask1_52_878)">
<path d="M752.297 154.835C747.435 155.26 743.959 159.283 744.391 164.224C744.823 169.165 748.846 172.501 753.804 172.067C758.762 171.634 762.204 167.582 761.775 162.672C761.348 157.794 757.32 154.395 752.297 154.835ZM753.526 168.503C750.757 168.746 748.54 166.773 748.287 163.885C748.032 160.964 749.84 158.64 752.609 158.398C755.411 158.153 757.629 160.158 757.882 163.046C758.134 165.934 756.294 168.261 753.526 168.503ZM762.413 157.734L764.828 157.523L765.979 170.681L769.842 170.343L768.392 153.751L762.113 154.3L762.413 157.734ZM734.224 160.004C736.253 159.827 737.973 160.938 738.746 162.745L742.836 162.388C741.747 158.474 738.227 156.065 733.946 156.439C729.083 156.865 725.607 160.888 726.039 165.83C726.471 170.772 730.494 174.107 735.453 173.673C739.638 173.307 742.751 170.319 743.141 166.242L739.083 166.597C738.666 168.509 737.169 169.934 735.14 170.111C732.338 170.356 730.187 168.377 729.934 165.489C729.68 162.569 731.424 160.249 734.224 160.004ZM836.108 154.588L833.239 154.419C831.87 154.345 830.865 153.98 830.772 152.921C830.671 151.766 831.877 151.079 833.582 150.929C835.45 150.766 836.712 151.464 837.084 152.757L840.819 152.43C840.108 149.13 837.361 147.398 833.402 147.744C829.312 148.101 826.79 150.424 827.049 153.376C827.295 156.2 829.21 157.683 832.828 157.883L835.697 158.052C837.099 158.123 837.92 158.602 838.01 159.629C838.125 160.944 836.82 161.608 834.953 161.771C832.666 161.971 831.297 161.153 830.981 159.758L827.181 160.091C827.82 163.301 830.562 165.357 835.198 164.951C839.416 164.582 842.048 162.412 841.759 159.106C841.501 156.154 839.338 154.79 836.108 154.588ZM765.862 147.084C764.445 147.208 763.472 148.328 763.596 149.739C763.719 151.151 764.871 152.085 766.289 151.961C767.705 151.837 768.679 150.717 768.555 149.306C768.432 147.894 767.279 146.96 765.862 147.084ZM823.655 154.643C823.341 151.049 820.942 148.833 816.305 149.239C811.926 149.622 809.673 152.051 809.487 155.495L813.319 155.16C813.397 153.827 814.332 152.646 816.522 152.454C818.486 152.283 819.528 153.064 819.62 154.124C819.741 155.504 818 156.011 815.831 156.427C812.897 157.007 809.316 158.355 809.653 162.206C809.914 165.191 812.304 166.921 815.846 166.612C818.615 166.369 820.252 165.062 820.962 163.156C821.234 164.782 822.55 165.734 824.257 165.585L826.511 165.388L826.211 161.954L824.31 162.12L823.657 154.642L823.655 154.643ZM820.221 159.147C820.415 161.362 818.626 163.167 816.275 163.373C814.826 163.499 813.549 162.997 813.437 161.714C813.294 160.077 815.219 159.456 817.005 159.106C818.73 158.794 819.662 158.324 820.081 157.543L820.221 159.147ZM798.822 150.766C796.664 150.955 794.94 152.012 793.784 153.632L792.99 144.55L789.127 144.888L791.189 168.476L794.988 168.144L794.797 165.962C796.222 167.422 798.14 168.192 800.329 168C804.965 167.595 808.155 163.63 807.723 158.687C807.291 153.745 803.394 150.367 798.822 150.766ZM799.438 164.489C796.669 164.731 794.452 162.758 794.2 159.87C793.947 156.982 795.817 154.62 798.586 154.378C801.388 154.133 803.539 156.112 803.794 159.031C804.046 161.919 802.207 164.247 799.438 164.489ZM780.469 152.371C777.958 152.591 776.405 153.761 775.566 155.29L775.378 153.14L771.546 153.475L772.996 170.066L776.86 169.728L776.071 160.711C775.85 158.175 777.302 156.238 779.685 156.029C781.907 155.835 783.428 157.286 783.627 159.565L784.458 169.065L788.322 168.727L787.466 158.939C787.102 154.766 784.688 152.002 780.469 152.371ZM859.834 153.581C859.419 148.832 855.65 145.798 850.981 146.207C846.023 146.64 842.71 150.681 843.139 155.591C843.591 160.758 847.787 163.85 852.552 163.434C856.577 163.082 859.525 160.431 860.034 156.991L856.009 157.343C855.559 158.87 854.215 159.829 852.315 159.995C849.835 160.212 847.833 158.834 847.179 156.175L859.962 155.057L859.833 153.581H859.834ZM847.164 153.395C847.575 151.031 849.215 149.756 851.211 149.581C853.4 149.39 855.184 150.495 855.761 152.643L847.164 153.395Z" fill="white"/>
</g>
<mask id="mask2_52_878" style="mask-type:alpha" maskUnits="userSpaceOnUse" x="1145" y="91" width="147" height="61">
<path d="M1287.68 91.2553L1145.22 103.712L1149.4 151.53L1291.86 139.073L1287.68 91.2553Z" fill="white"/>
</mask>
<g mask="url(#mask2_52_878)">
<path d="M1199.34 111.8L1191.5 112.486C1190.96 112.533 1190.54 112.963 1190.5 113.5L1189.09 133.895C1189.06 134.297 1189.4 134.628 1189.8 134.593L1193.55 134.266C1194.08 134.219 1194.51 133.789 1194.54 133.25L1194.92 127.749C1194.96 127.211 1195.38 126.781 1195.92 126.734L1198.4 126.517C1203.57 126.065 1206.34 123.304 1206.68 118.28C1206.84 116.081 1206.36 114.407 1205.24 113.303C1204.01 112.09 1201.97 111.57 1199.34 111.8ZM1200.89 119.068C1200.71 121.921 1198.56 122.109 1196.48 122.291L1195.29 122.394L1195.67 117.064C1195.69 116.742 1195.94 116.484 1196.26 116.456L1196.81 116.408C1198.22 116.285 1199.56 116.168 1200.32 116.915C1200.77 117.361 1200.96 118.065 1200.89 119.068Z" fill="white"/>
<path d="M1223.43 117.006L1219.67 117.334C1219.35 117.362 1219.1 117.621 1219.08 117.943L1219 119.008L1218.7 118.65C1217.79 117.541 1215.94 117.305 1214.13 117.463C1209.98 117.826 1206.71 121.28 1206.4 125.752C1206.24 127.983 1206.93 130.042 1208.31 131.4C1209.57 132.649 1211.26 133.068 1213.21 132.898C1216.55 132.605 1218.22 130.292 1218.22 130.292L1218.14 131.351C1218.11 131.756 1218.45 132.087 1218.85 132.052L1222.24 131.756C1222.77 131.709 1223.19 131.279 1223.23 130.74L1224.14 117.704C1224.17 117.303 1223.83 116.971 1223.43 117.006ZM1218.83 124.776C1218.66 126.954 1217.08 128.543 1214.91 128.733C1213.82 128.829 1212.91 128.555 1212.3 127.941C1211.68 127.331 1211.39 126.412 1211.48 125.353C1211.63 123.196 1213.23 121.556 1215.37 121.369C1216.44 121.276 1217.33 121.555 1217.96 122.173C1218.6 122.799 1218.91 123.722 1218.83 124.776Z" fill="white"/>
<path d="M1243.44 115.256L1239.66 115.586C1239.3 115.618 1238.98 115.826 1238.8 116.144L1234.27 124.269L1231.41 117.091C1231.24 116.642 1230.78 116.363 1230.3 116.405L1226.59 116.73C1226.14 116.769 1225.86 117.237 1226.05 117.649L1231.27 129.488L1227.84 135.349C1227.57 135.811 1227.94 136.381 1228.47 136.335L1232.24 136.005C1232.6 135.974 1232.92 135.77 1233.09 135.459L1244.06 116.236C1244.33 115.776 1243.97 115.21 1243.44 115.256Z" fill="white"/>
<path d="M1255.3 106.907L1247.46 107.593C1246.92 107.64 1246.5 108.069 1246.46 108.607L1245.05 129.002C1245.02 129.404 1245.36 129.735 1245.76 129.7L1249.78 129.348C1250.16 129.315 1250.45 129.014 1250.48 128.637L1250.88 122.856C1250.92 122.318 1251.34 121.888 1251.88 121.841L1254.36 121.624C1259.53 121.172 1262.29 118.411 1262.64 113.387C1262.8 111.188 1262.31 109.514 1261.19 108.41C1259.97 107.197 1257.93 106.677 1255.3 106.907ZM1256.85 114.175C1256.67 117.027 1254.52 117.215 1252.44 117.397L1251.25 117.501L1251.63 112.171C1251.65 111.849 1251.9 111.591 1252.22 111.563L1252.77 111.515C1254.18 111.391 1255.52 111.274 1256.28 112.022C1256.73 112.467 1256.92 113.172 1256.85 114.175Z" fill="white"/>
<path d="M1279.39 112.113L1275.63 112.441C1275.31 112.469 1275.06 112.727 1275.04 113.049L1274.96 114.115L1274.66 113.757C1273.75 112.648 1271.9 112.411 1270.09 112.57C1265.94 112.933 1262.67 116.387 1262.37 120.858C1262.2 123.09 1262.89 125.149 1264.27 126.507C1265.53 127.756 1267.22 128.175 1269.17 128.004C1272.51 127.712 1274.18 125.399 1274.18 125.399L1274.1 126.457C1274.07 126.862 1274.41 127.193 1274.82 127.158L1278.2 126.862C1278.73 126.815 1279.16 126.385 1279.19 125.847L1280.1 112.811C1280.13 112.41 1279.79 112.078 1279.39 112.113ZM1274.79 119.883C1274.62 122.06 1273.04 123.65 1270.87 123.84C1269.78 123.936 1268.87 123.662 1268.25 123.048C1267.64 122.438 1267.35 121.519 1267.43 120.46C1267.59 118.302 1269.19 116.663 1271.33 116.476C1272.39 116.383 1273.29 116.661 1273.92 117.28C1274.56 117.906 1274.87 118.829 1274.79 119.883Z" fill="white"/>
<path d="M1283.23 105.02L1281.8 125.788C1281.77 126.19 1282.11 126.521 1282.51 126.486L1285.75 126.203C1286.29 126.156 1286.71 125.726 1286.75 125.188L1288.16 104.794C1288.19 104.391 1287.85 104.059 1287.45 104.094L1283.83 104.411C1283.51 104.44 1283.25 104.698 1283.23 105.02Z" fill="white"/>
<path d="M1156.92 141.408L1157.18 137.545L1155.84 137.631L1149.46 138.189L1151.44 109.681C1151.44 109.595 1151.48 109.512 1151.54 109.45C1151.6 109.388 1151.68 109.35 1151.77 109.342L1162.53 108.401C1166.1 108.089 1168.63 108.617 1170.05 109.971C1170.71 110.607 1171.16 111.292 1171.42 112.068C1171.68 112.881 1171.77 113.873 1171.69 115.1L1171.68 115.19L1171.75 115.965L1172.38 116.254C1172.92 116.479 1173.35 116.752 1173.69 117.079C1174.25 117.622 1174.65 118.341 1174.87 119.215C1175.1 120.114 1175.14 121.204 1175.01 122.453C1174.86 123.891 1174.52 125.16 1174.01 126.22C1173.54 127.197 1172.9 128.028 1172.12 128.698C1171.37 129.334 1170.46 129.847 1169.41 130.216C1168.39 130.578 1167.22 130.818 1165.92 130.932L1165.08 131.005C1164.49 131.057 1163.92 131.324 1163.5 131.75C1163.08 132.185 1162.82 132.751 1162.78 133.348L1162.75 133.697L1162.27 140.506L1162.25 140.757C1162.24 140.836 1162.22 140.877 1162.19 140.906C1162.17 140.933 1162.13 140.952 1162.09 140.956L1156.92 141.408Z" fill="white"/>
<path d="M1172.87 115.176C1172.85 115.384 1172.83 115.597 1172.81 115.817C1172.03 123.226 1167.39 126.168 1161.19 126.71L1158.04 126.986C1157.28 127.052 1156.69 127.659 1156.63 128.417L1155.92 138.809L1155.71 141.755C1155.68 142.252 1156.09 142.662 1156.59 142.619L1162.19 142.129C1162.85 142.071 1163.37 141.54 1163.42 140.877L1163.45 140.588L1163.92 133.806L1163.96 133.433C1164 132.767 1164.52 132.236 1165.19 132.178L1166.02 132.105C1171.45 131.631 1175.5 129.057 1176.19 122.575C1176.47 119.867 1176.01 117.667 1174.5 116.224C1174.04 115.789 1173.5 115.442 1172.87 115.176Z" fill="white"/>
<path d="M1171.33 114.714C1171.11 114.67 1170.88 114.632 1170.64 114.601C1170.41 114.57 1170.17 114.546 1169.92 114.529C1169.06 114.465 1168.12 114.481 1167.12 114.569L1158.69 115.306C1158.48 115.324 1158.29 115.389 1158.12 115.489C1157.75 115.71 1157.49 116.104 1157.46 116.561L1156.66 128.081L1156.63 128.417C1156.69 127.659 1157.28 127.052 1158.04 126.986L1161.19 126.71C1167.39 126.168 1172.03 123.225 1172.81 115.817C1172.83 115.597 1172.85 115.384 1172.87 115.176C1172.49 115.017 1172.09 114.888 1171.66 114.786C1171.55 114.761 1171.44 114.737 1171.33 114.714Z" fill="white"/>
<path d="M1157.46 116.56C1157.49 116.103 1157.75 115.71 1158.12 115.49C1158.29 115.39 1158.48 115.326 1158.69 115.307L1167.12 114.57C1168.12 114.483 1169.06 114.466 1169.92 114.53C1170.17 114.547 1170.41 114.571 1170.64 114.602C1170.88 114.633 1171.11 114.671 1171.33 114.715C1171.44 114.738 1171.55 114.762 1171.66 114.786C1172.09 114.888 1172.49 115.018 1172.87 115.176C1173.05 112.447 1172.47 110.651 1170.87 109.118C1169.1 107.431 1166.14 106.902 1162.43 107.226L1151.67 108.167C1150.91 108.233 1150.32 108.84 1150.26 109.6L1148.27 138.401C1148.23 138.97 1148.71 139.44 1149.27 139.39L1155.91 138.809L1156.66 128.081L1157.46 116.56Z" fill="white"/>
</g>
<mask id="mask3_52_878" style="mask-type:alpha" maskUnits="userSpaceOnUse" x="1391" y="69" width="146" height="62">
<path d="M1532.74 69.8263L1391.28 82.196L1395.46 130.014L1536.92 117.644L1532.74 69.8263Z" fill="white"/>
</mask>
<g mask="url(#mask3_52_878)">
<path fill-rule="evenodd" clip-rule="evenodd" d="M1396.84 117.699C1393.31 114.77 1392.86 109.563 1395.82 106.067L1403.85 96.574C1406.36 93.619 1410.5 92.834 1413.84 94.431C1414.88 94.925 1414.99 96.256 1414.25 97.13C1413.51 98.004 1412.18 98.05 1411.05 97.828C1409.61 97.543 1408.06 98.027 1407.04 99.225L1399.01 108.719C1397.53 110.466 1397.75 113.07 1399.51 114.535C1401.27 115.999 1403.9 115.769 1405.38 114.022L1421.45 95.035C1424.41 91.54 1429.66 91.08 1433.18 94.009L1442.75 101.964C1446.27 104.892 1446.72 110.1 1443.76 113.596C1440.8 117.091 1435.55 117.55 1432.03 114.622L1428.84 111.97L1425.5 115.926C1422.99 118.88 1418.85 119.666 1415.51 118.068C1414.47 117.575 1414.36 116.243 1415.1 115.369C1415.84 114.495 1417.17 114.449 1418.3 114.672C1419.74 114.957 1421.29 114.472 1422.31 113.274L1425.75 109.205C1427.18 107.52 1429.71 107.299 1431.41 108.711L1434.71 111.457C1436.47 112.921 1439.1 112.692 1440.58 110.944C1442.05 109.196 1441.83 106.593 1440.07 105.128L1430.5 97.174C1428.74 95.709 1426.12 95.939 1424.64 97.687L1408.57 116.673C1405.61 120.169 1400.36 120.628 1396.84 117.699Z" fill="white"/>
<path d="M1477.74 92.383C1475.71 92.561 1474.22 93.426 1473.33 94.975C1472.31 93.593 1470.83 92.988 1468.94 93.152C1467 93.322 1465.63 94.116 1464.83 95.565L1464.69 93.953L1460.7 94.302L1462.03 109.509L1466.01 109.161L1465.27 100.614C1465.07 98.394 1466.11 97.077 1467.87 96.924C1469.51 96.78 1470.56 97.761 1470.72 99.586L1471.51 108.68L1475.5 108.331L1474.75 99.785C1474.56 97.565 1475.5 96.256 1477.32 96.097C1478.96 95.954 1480.01 96.935 1480.17 98.76L1480.96 107.853L1484.95 107.505L1484.13 98.137C1483.8 94.336 1481.3 92.072 1477.74 92.383Z" fill="white"/>
<path d="M1498.59 92.797C1497.25 91.412 1495.52 90.828 1493.36 91.017C1491.29 91.198 1489.6 92.143 1488.25 93.824C1486.93 95.502 1486.36 97.452 1486.56 99.703C1486.75 101.953 1487.66 103.805 1489.25 105.229C1490.87 106.65 1492.69 107.257 1494.76 107.076C1496.92 106.887 1498.53 106.011 1499.6 104.415L1499.76 106.21L1503.74 105.861L1502.41 90.654L1498.43 91.003L1498.59 92.797ZM1492.02 102.351C1491.14 101.6 1490.65 100.601 1490.54 99.354C1490.43 98.107 1490.74 97.038 1491.48 96.177C1492.21 95.286 1493.19 94.801 1494.43 94.693C1495.66 94.585 1496.72 94.892 1497.59 95.642C1498.49 96.36 1498.99 97.359 1499.09 98.606C1499.2 99.853 1498.89 100.922 1498.13 101.817C1497.4 102.678 1496.41 103.162 1495.18 103.27C1493.94 103.378 1492.89 103.072 1492.02 102.351Z" fill="white"/>
<path d="M1517.34 91.984L1517.12 89.369L1505.53 90.382L1505.85 94.062L1512.06 93.519L1506.32 103L1506.55 105.616L1518.75 104.549L1518.43 100.869L1511.57 101.468L1517.34 91.984Z" fill="white"/>
<path d="M1534.89 97.101C1534.93 96.515 1534.95 95.992 1534.9 95.475C1534.7 93.194 1533.8 91.373 1532.18 89.952C1530.59 88.528 1528.64 87.932 1526.39 88.129C1524.01 88.337 1522.1 89.27 1520.72 90.954C1519.34 92.607 1518.73 94.59 1518.93 96.872C1519.14 99.183 1520.08 101.032 1521.75 102.417C1523.43 103.803 1525.54 104.385 1528.1 104.161C1531.06 103.902 1533.22 102.609 1534.55 100.318L1531.18 98.774C1530.49 99.845 1529.36 100.465 1527.85 100.597C1525.47 100.805 1523.94 99.989 1523.24 98.119L1534.89 97.101ZM1522.92 95.083C1523.21 93.096 1524.56 91.844 1526.69 91.657C1528.52 91.498 1530.15 92.366 1530.79 94.394L1522.92 95.083Z" fill="white"/>
</g>
<mask id="mask4_52_878" style="mask-type:alpha" maskUnits="userSpaceOnUse" x="383" y="149" width="242" height="70">
<path d="M620.225 149.62L383.13 170.352L387.311 218.17L624.407 197.437L620.225 149.62Z" fill="white"/>
</mask>
<g mask="url(#mask4_52_878)">
<path d="M399.206 189.193L407.618 179.1L417.66 187.584L422.554 181.711L406.673 168.293L393.367 184.259L399.206 189.193Z" fill="white"/>
<path d="M395.75 193.339L389.91 188.405L385.015 194.278L390.855 199.212L395.75 193.339Z" fill="white"/>
<path d="M399.874 196.824L409.91 205.303L418.326 195.206L424.168 200.136L424.166 200.14L410.855 216.11L394.979 202.697L394.97 202.69L399.874 196.824Z" fill="white"/>
<path d="M427.618 195.999L432.513 190.127L426.674 185.193L421.779 191.066L427.618 195.999Z" fill="white"/>
<path d="M414.208 191.723L414.21 191.722L408.284 186.716L404.614 191.12H404.613L404.192 191.626L403.322 192.67L403.315 192.678L403.323 192.685L409.244 197.687L414.21 191.728L414.213 191.725L414.208 191.723Z" fill="white"/>
<path d="M439.803 177.071L451.476 176.05C454.373 175.797 456.63 176.354 458.245 177.721C459.496 178.78 460.196 180.167 460.346 181.881L460.352 181.954C460.415 182.678 460.382 183.326 460.252 183.897C460.122 184.469 459.927 184.99 459.668 185.463C459.41 185.936 459.098 186.359 458.734 186.731C458.371 187.103 457.973 187.43 457.541 187.711C459.046 188.14 460.259 188.793 461.178 189.674C462.097 190.556 462.631 191.841 462.778 193.531L462.785 193.604C462.886 194.763 462.754 195.796 462.387 196.705C462.019 197.613 461.448 198.393 460.672 199.045C459.897 199.697 458.941 200.218 457.805 200.61C456.669 201.001 455.394 201.258 453.982 201.382L442.02 202.428L439.803 177.071ZM451.205 186.404C452.429 186.297 453.382 186.001 454.064 185.515C454.747 185.03 455.047 184.316 454.965 183.374L454.958 183.302C454.885 182.457 454.516 181.838 453.853 181.446C453.19 181.053 452.271 180.908 451.096 181.011L445.627 181.489L446.096 186.85L451.205 186.404ZM453.574 196.49C454.797 196.383 455.737 196.077 456.394 195.569C457.05 195.061 457.338 194.336 457.255 193.394L457.249 193.322C457.175 192.477 456.793 191.835 456.102 191.396C455.411 190.958 454.346 190.802 452.906 190.928L446.501 191.488L446.989 197.066L453.574 196.491V196.49Z" fill="white"/>
<path d="M468.128 174.594L473.669 174.11L475.887 199.467L470.345 199.952L468.128 174.594Z" fill="white"/>
<path d="M482.063 173.376L487.171 172.929L500.339 187.51L498.974 171.897L504.443 171.419L506.66 196.776L501.947 197.188L488.339 182.135L489.749 198.255L484.28 198.733L482.063 173.376Z" fill="white"/>
<path d="M521.203 169.771L526.312 169.324L539.341 193.919L533.547 194.425L530.747 188.939L520.096 189.871L518.291 195.759L512.641 196.253L521.203 169.771ZM528.337 184.185L524.272 176.255L521.645 184.771L528.337 184.185Z" fill="white"/>
<path d="M543.105 168.038L548.215 167.591L561.382 182.172L560.016 166.559L565.486 166.081L567.703 191.438L562.99 191.851L549.382 176.797L550.791 192.917L545.322 193.395L543.105 168.038Z" fill="white"/>
<path d="M587.683 190.129C585.836 190.29 584.092 190.102 582.449 189.565C580.806 189.028 579.359 188.223 578.105 187.152C576.851 186.082 575.83 184.778 575.044 183.24C574.256 181.703 573.784 180.029 573.625 178.217L573.619 178.145C573.461 176.334 573.636 174.61 574.146 172.971C574.655 171.333 575.433 169.865 576.48 168.569C577.526 167.273 578.824 166.21 580.37 165.382C581.917 164.553 583.663 164.054 585.606 163.884C586.78 163.781 587.862 163.784 588.851 163.892C589.839 164.001 590.744 164.189 591.565 164.457C592.387 164.727 593.154 165.073 593.868 165.497C594.581 165.922 595.252 166.398 595.878 166.928L592.711 171.329C591.648 170.522 590.586 169.909 589.522 169.491C588.458 169.073 587.291 168.92 586.019 169.031C584.964 169.123 584.004 169.414 583.141 169.903C582.277 170.392 581.553 171.027 580.968 171.808C580.385 172.589 579.954 173.473 579.677 174.458C579.402 175.444 579.311 176.48 579.406 177.566L579.412 177.638C579.507 178.725 579.777 179.736 580.22 180.67C580.665 181.605 581.236 182.406 581.936 183.075C582.634 183.744 583.452 184.251 584.389 184.595C585.326 184.939 586.334 185.063 587.413 184.969C588.853 184.843 590.046 184.471 590.995 183.853C591.944 183.235 592.871 182.424 593.774 181.42L597.614 184.698C597.027 185.455 596.409 186.142 595.763 186.757C595.116 187.374 594.396 187.917 593.603 188.389C592.811 188.859 591.931 189.241 590.966 189.531C590 189.822 588.906 190.022 587.683 190.129Z" fill="white"/>
<path d="M602.276 162.864L621.238 161.206L621.672 166.169L608.179 167.349L608.629 172.493L620.503 171.454L620.937 176.417L609.063 177.455L609.529 182.78L623.202 181.585L623.636 186.547L604.493 188.221L602.276 162.864Z" fill="white"/>
</g>
</g>
<defs>
<filter id="filter0_i_52_878" x="-40.1224" y="70.0444" width="2051.02" height="161.343" filterUnits="userSpaceOnUse" color-interpolation-filters="sRGB">
<feFlood flood-opacity="0" result="BackgroundImageFix"/>
<feBlend mode="normal" in="SourceGraphic" in2="BackgroundImageFix" result="shape"/>
<feColorMatrix in="SourceAlpha" type="matrix" values="0 0 0 0 0 0 0 0 0 0 0 0 0 0 0 0 0 0 127 0" result="hardAlpha"/>
<feOffset dx="30" dy="14"/>
<feGaussianBlur stdDeviation="42"/>
<feComposite in2="hardAlpha" operator="arithmetic" k2="-1" k3="1"/>
<feColorMatrix type="matrix" values="0 0 0 0 0.0472222 0 0 0 0 0.0666667 0 0 0 0 0 0 0 0 0.7 0"/>
<feBlend mode="normal" in2="shape" result="effect1_innerShadow_52_878"/>
</filter>
<filter id="filter1_i_52_878" x="-51.0385" y="-0.0706787" width="2051.45" height="301.573" filterUnits="userSpaceOnUse" color-interpolation-filters="sRGB">
<feFlood flood-opacity="0" result="BackgroundImageFix"/>
<feBlend mode="normal" in="SourceGraphic" in2="BackgroundImageFix" result="shape"/>
<feColorMatrix in="SourceAlpha" type="matrix" values="0 0 0 0 0 0 0 0 0 0 0 0 0 0 0 0 0 0 127 0" result="hardAlpha"/>
<feOffset dx="30" dy="14"/>
<feGaussianBlur stdDeviation="42"/>
<feComposite in2="hardAlpha" operator="arithmetic" k2="-1" k3="1"/>
<feColorMatrix type="matrix" values="0 0 0 0 0.0472222 0 0 0 0 0.0666667 0 0 0 0 0 0 0 0 0.1 0"/>
<feBlend mode="normal" in2="shape" result="effect1_innerShadow_52_878"/>
</filter>
<clipPath id="clip0_52_878">
<rect width="1920" height="288" fill="white"/>
</clipPath>
</defs>
</svg>
