<svg width="29" height="29" viewBox="0 0 29 29" fill="none" xmlns="http://www.w3.org/2000/svg">
<path d="M24.972 3.33411L16.2275 9.82877L17.8446 5.99701L24.972 3.33411Z" fill="#E2761B" stroke="#E2761B" stroke-width="0.0929972" stroke-linecap="round" stroke-linejoin="round"/>
<path d="M4.78491 3.33411L13.4591 9.89029L11.9211 5.99701L4.78491 3.33411Z" fill="#E4761B" stroke="#E4761B" stroke-width="0.0929972" stroke-linecap="round" stroke-linejoin="round"/>
<path d="M21.8258 18.3888L19.4968 21.9569L24.4799 23.3279L25.9124 18.4679L21.8258 18.3888Z" fill="#E4761B" stroke="#E4761B" stroke-width="0.0929972" stroke-linecap="round" stroke-linejoin="round"/>
<path d="M3.86206 18.4679L5.28579 23.3279L10.2688 21.9569L7.9399 18.3888L3.86206 18.4679Z" fill="#E4761B" stroke="#E4761B" stroke-width="0.0929972" stroke-linecap="round" stroke-linejoin="round"/>
<path d="M9.9877 12.3599L8.59912 14.4603L13.547 14.68L13.3712 9.36304L9.9877 12.3599Z" fill="#E4761B" stroke="#E4761B" stroke-width="0.0929972" stroke-linecap="round" stroke-linejoin="round"/>
<path d="M19.7693 12.3598L16.3418 9.30139L16.2275 14.6799L21.1666 14.4602L19.7693 12.3598Z" fill="#E4761B" stroke="#E4761B" stroke-width="0.0929972" stroke-linecap="round" stroke-linejoin="round"/>
<path d="M10.2688 21.9568L13.2393 20.5067L10.6731 18.5029L10.2688 21.9568Z" fill="#E4761B" stroke="#E4761B" stroke-width="0.0929972" stroke-linecap="round" stroke-linejoin="round"/>
<path d="M16.5176 20.5067L19.4969 21.9568L19.0838 18.5029L16.5176 20.5067Z" fill="#E4761B" stroke="#E4761B" stroke-width="0.0929972" stroke-linecap="round" stroke-linejoin="round"/>
<path d="M19.4966 21.9568L16.5173 20.5067L16.7546 22.449L16.7283 23.2663L19.4966 21.9568Z" fill="#D7C1B3" stroke="#D7C1B3" stroke-width="0.0929972" stroke-linecap="round" stroke-linejoin="round"/>
<path d="M10.2688 21.9568L13.0372 23.2663L13.0196 22.449L13.2393 20.5067L10.2688 21.9568Z" fill="#D7C1B3" stroke="#D7C1B3" stroke-width="0.0929972" stroke-linecap="round" stroke-linejoin="round"/>
<path d="M13.0811 17.2199L10.6028 16.4904L12.3517 15.6907L13.0811 17.2199Z" fill="#233447" stroke="#233447" stroke-width="0.0929972" stroke-linecap="round" stroke-linejoin="round"/>
<path d="M16.6755 17.2199L17.405 15.6907L19.1627 16.4904L16.6755 17.2199Z" fill="#233447" stroke="#233447" stroke-width="0.0929972" stroke-linecap="round" stroke-linejoin="round"/>
<path d="M10.2689 21.9569L10.6907 18.3888L7.93994 18.4679L10.2689 21.9569Z" fill="#CD6116" stroke="#CD6116" stroke-width="0.0929972" stroke-linecap="round" stroke-linejoin="round"/>
<path d="M19.0752 18.3888L19.497 21.9569L21.826 18.4679L19.0752 18.3888Z" fill="#CD6116" stroke="#CD6116" stroke-width="0.0929972" stroke-linecap="round" stroke-linejoin="round"/>
<path d="M21.1666 14.4603L16.2275 14.68L16.6845 17.2199L17.414 15.6907L19.1717 16.4905L21.1666 14.4603Z" fill="#CD6116" stroke="#CD6116" stroke-width="0.0929972" stroke-linecap="round" stroke-linejoin="round"/>
<path d="M10.6029 16.4905L12.3606 15.6907L13.0812 17.2199L13.547 14.68L8.59912 14.4603L10.6029 16.4905Z" fill="#CD6116" stroke="#CD6116" stroke-width="0.0929972" stroke-linecap="round" stroke-linejoin="round"/>
<path d="M8.59912 14.4603L10.6732 18.503L10.6029 16.4905L8.59912 14.4603Z" fill="#E4751F" stroke="#E4751F" stroke-width="0.0929972" stroke-linecap="round" stroke-linejoin="round"/>
<path d="M19.1716 16.4905L19.0837 18.503L21.1666 14.4603L19.1716 16.4905Z" fill="#E4751F" stroke="#E4751F" stroke-width="0.0929972" stroke-linecap="round" stroke-linejoin="round"/>
<path d="M13.5471 14.6801L13.0813 17.2199L13.6613 20.2168L13.7932 16.2708L13.5471 14.6801Z" fill="#E4751F" stroke="#E4751F" stroke-width="0.0929972" stroke-linecap="round" stroke-linejoin="round"/>
<path d="M16.2275 14.6801L15.9902 16.262L16.0957 20.2168L16.6845 17.2199L16.2275 14.6801Z" fill="#E4751F" stroke="#E4751F" stroke-width="0.0929972" stroke-linecap="round" stroke-linejoin="round"/>
<path d="M16.6843 17.2199L16.0955 20.2168L16.5173 20.5068L19.0835 18.503L19.1714 16.4905L16.6843 17.2199Z" fill="#F6851B" stroke="#F6851B" stroke-width="0.0929972" stroke-linecap="round" stroke-linejoin="round"/>
<path d="M10.6028 16.4905L10.6731 18.503L13.2393 20.5068L13.6612 20.2168L13.0811 17.2199L10.6028 16.4905Z" fill="#F6851B" stroke="#F6851B" stroke-width="0.0929972" stroke-linecap="round" stroke-linejoin="round"/>
<path d="M16.7283 23.2664L16.7547 22.4491L16.535 22.2557H13.2217L13.0196 22.4491L13.0372 23.2664L10.2688 21.9569L11.2355 22.7479L13.1954 24.1101H16.5613L18.5299 22.7479L19.4967 21.9569L16.7283 23.2664Z" fill="#C0AD9E" stroke="#C0AD9E" stroke-width="0.0929972" stroke-linecap="round" stroke-linejoin="round"/>
<path d="M16.5176 20.5067L16.0957 20.2167H13.6613L13.2395 20.5067L13.0198 22.4489L13.2219 22.2556H16.5352L16.7549 22.4489L16.5176 20.5067Z" fill="#161616" stroke="#161616" stroke-width="0.0929972" stroke-linecap="round" stroke-linejoin="round"/>
<path d="M25.3414 10.2506L26.0884 6.66493L24.9723 3.33411L16.5178 9.60906L19.7695 12.3598L24.3659 13.7045L25.3854 12.518L24.9459 12.2017L25.649 11.5601L25.1041 11.1382L25.8072 10.6022L25.3414 10.2506Z" fill="#763D16" stroke="#763D16" stroke-width="0.0929972" stroke-linecap="round" stroke-linejoin="round"/>
<path d="M3.67773 6.66493L4.42475 10.2506L3.95018 10.6022L4.65325 11.1382L4.11716 11.5601L4.82023 12.2017L4.38081 12.518L5.39148 13.7045L9.98784 12.3598L13.2396 9.60906L4.78508 3.33411L3.67773 6.66493Z" fill="#763D16" stroke="#763D16" stroke-width="0.0929972" stroke-linecap="round" stroke-linejoin="round"/>
<path d="M24.3656 13.7045L19.7692 12.3599L21.1666 14.4603L19.0837 18.503L21.8257 18.4678H25.9124L24.3656 13.7045Z" fill="#F6851B" stroke="#F6851B" stroke-width="0.0929972" stroke-linecap="round" stroke-linejoin="round"/>
<path d="M9.98761 12.3599L5.39125 13.7045L3.86206 18.4678H7.9399L10.6731 18.503L8.59903 14.4603L9.98761 12.3599Z" fill="#F6851B" stroke="#F6851B" stroke-width="0.0929972" stroke-linecap="round" stroke-linejoin="round"/>
<path d="M16.2275 14.6801L16.5175 9.60912L17.8533 5.99707H11.9211L13.2394 9.60912L13.547 14.6801L13.6525 16.2796L13.6613 20.2168H16.0957L16.1132 16.2796L16.2275 14.6801Z" fill="#F6851B" stroke="#F6851B" stroke-width="0.0929972" stroke-linecap="round" stroke-linejoin="round"/>
</svg>
