<svg width="25" height="25" viewBox="0 0 25 25" fill="none" xmlns="http://www.w3.org/2000/svg">
<path d="M9.90622 4.25543C9.99622 3.71343 10.4662 3.31543 11.0162 3.31543H13.6092C14.1592 3.31543 14.6292 3.71343 14.7192 4.25543L14.9322 5.53643C14.9952 5.91043 15.2452 6.22243 15.5772 6.40643C15.6512 6.44643 15.7242 6.48943 15.7972 6.53343C16.1212 6.72943 16.5172 6.79043 16.8722 6.65743L18.0892 6.20143C18.3386 6.10764 18.6132 6.10541 18.8641 6.19514C19.115 6.28487 19.3259 6.46074 19.4592 6.69143L20.7552 8.93843C20.8883 9.16913 20.9352 9.43956 20.8876 9.7016C20.84 9.96363 20.7009 10.2003 20.4952 10.3694L19.4922 11.1964C19.1992 11.4364 19.0542 11.8094 19.0612 12.1884C19.0628 12.2734 19.0628 12.3584 19.0612 12.4434C19.0542 12.8214 19.1992 13.1934 19.4912 13.4334L20.4962 14.2614C20.9202 14.6114 21.0302 15.2154 20.7562 15.6914L19.4582 17.9384C19.3251 18.1691 19.1144 18.345 18.8637 18.4349C18.613 18.5248 18.3386 18.5229 18.0892 18.4294L16.8722 17.9734C16.5172 17.8404 16.1222 17.9014 15.7962 18.0974C15.7237 18.1415 15.6504 18.1842 15.5762 18.2254C15.2452 18.4084 14.9952 18.7204 14.9322 19.0944L14.7192 20.3744C14.6292 20.9174 14.1592 21.3154 13.6092 21.3154H11.0152C10.4652 21.3154 9.99522 20.9174 9.90522 20.3754L9.69222 19.0944C9.63022 18.7204 9.38022 18.4084 9.04822 18.2244C8.97407 18.1835 8.90072 18.1412 8.82822 18.0974C8.50322 17.9014 8.10822 17.8404 7.75222 17.9734L6.53522 18.4294C6.28595 18.523 6.01158 18.525 5.76092 18.4353C5.51025 18.3456 5.29953 18.1699 5.16622 17.9394L3.86922 15.6924C3.73616 15.4617 3.68926 15.1913 3.73687 14.9293C3.78448 14.6672 3.92351 14.4306 4.12922 14.2614L5.13322 13.4344C5.42522 13.1944 5.57022 12.8214 5.56322 12.4424C5.56165 12.3574 5.56165 12.2724 5.56322 12.1874C5.57022 11.8094 5.42522 11.4374 5.13322 11.1974L4.12922 10.3694C3.92376 10.2003 3.78489 9.96386 3.73729 9.70205C3.68969 9.44024 3.73643 9.17003 3.86922 8.93943L5.16622 6.69243C5.2994 6.46157 5.51023 6.28549 5.76113 6.19557C6.01203 6.10564 6.28671 6.10772 6.53622 6.20143L7.75222 6.65743C8.10822 6.79043 8.50322 6.72943 8.82822 6.53343C8.90022 6.48943 8.97422 6.44643 9.04822 6.40543C9.38022 6.22243 9.63022 5.91043 9.69222 5.53643L9.90622 4.25543V4.25543Z" stroke="white" stroke-width="1.5" stroke-linecap="round" stroke-linejoin="round"/>
<path d="M15.3125 12.3154C15.3125 13.1111 14.9964 13.8741 14.4338 14.4368C13.8712 14.9994 13.1081 15.3154 12.3125 15.3154C11.5169 15.3154 10.7538 14.9994 10.1912 14.4368C9.62857 13.8741 9.3125 13.1111 9.3125 12.3154C9.3125 11.5198 9.62857 10.7567 10.1912 10.1941C10.7538 9.6315 11.5169 9.31543 12.3125 9.31543C13.1081 9.31543 13.8712 9.6315 14.4338 10.1941C14.9964 10.7567 15.3125 11.5198 15.3125 12.3154V12.3154Z" stroke="white" stroke-width="1.5" stroke-linecap="round" stroke-linejoin="round"/>
</svg>
