<svg width="27" height="17" viewBox="0 0 27 17" fill="none" xmlns="http://www.w3.org/2000/svg">
<path d="M6.20555 3.84697C10.4456 -0.315528 17.3201 -0.315528 21.5601 3.84697L22.0704 4.34794C22.2824 4.55606 22.2824 4.8935 22.0704 5.10163L20.3248 6.81532C20.2188 6.91939 20.0469 6.91939 19.9409 6.81532L19.2387 6.12594C16.2807 3.22207 11.4849 3.22207 8.52697 6.12594L7.77494 6.86421C7.66894 6.96828 7.49708 6.96828 7.39108 6.86421L5.64546 5.15052C5.43345 4.94239 5.43345 4.60495 5.64546 4.39683L6.20555 3.84697ZM25.1702 7.39108L26.7238 8.91628C26.9358 9.12441 26.9358 9.46184 26.7238 9.66997L19.7185 16.5473C19.5065 16.7554 19.1628 16.7554 18.9508 16.5473C18.9508 16.5473 18.9508 16.5473 18.9508 16.5473L13.9788 11.6663C13.9258 11.6142 13.8399 11.6142 13.7869 11.6663H13.7869L8.81505 16.5473C8.60305 16.7554 8.25933 16.7554 8.04733 16.5473C8.04732 16.5473 8.04732 16.5473 8.04732 16.5473L1.04181 9.66988C0.829812 9.46175 0.829812 9.12432 1.04181 8.91619L2.59542 7.39099C2.80742 7.18287 3.15115 7.18287 3.36315 7.39099L8.33517 12.2721C8.38817 12.3241 8.4741 12.3241 8.5271 12.2721C8.5271 12.2721 8.5271 12.2721 8.5271 12.2721L13.4989 7.39099C13.7109 7.18286 14.0546 7.18286 14.2666 7.39098C14.2666 7.39098 14.2666 7.39098 14.2666 7.39099L19.2386 12.2721C19.2916 12.3241 19.3775 12.3241 19.4305 12.2721L24.4025 7.39108C24.6145 7.18296 24.9582 7.18296 25.1702 7.39108Z" fill="#3B99FC"/>
</svg>
